#!OML:ASF E:\Steps\Project 1\Capture day 1\Session 2\Subject.ASF
:FULLY-SPECIFIED
:DEGREES
499
root 2.32641 17.731 18.619 -153.72 -3.82225 176.832
lowerback -21.5875 -3.49177 -5.32109
upperback 0.736746 -3.53182 0.959645
thorax 13.4088 -2.09412 2.95132
lowerneck 0.534306 -5.19333 0.0770753
upperneck 23.6937 -5.0256 0.0941817
head 7.15153 -1.58437 -0.174388
rclavicle 9.01985e-015 2.48481e-016
rhumerus -45.2014 -16.0875 -73.2204
rradius 33.2104
rwrist -4.66371
rhand -9.4356 -58.1376
rfingers 7.12502
rthumb 16.5271 632.546
lclavicle 9.01985e-015 2.48481e-016
lhumerus -29.1341 -3.50556 82.5329
lradius 27.9939
lwrist -2.47417
lhand -21.8401 -14.3524
lfingers 7.12502
lthumb 4.56321 15.5784
rfemur -40.2305 5.87987 8.87573
rtibia 25.2952
rfoot -19.4026 -6.51808
rtoes -27.8006
lfemur -22.0796 -17.2873 -9.84718
ltibia 19.0293
lfoot -15.8494 11.1947
ltoes -44.2628
500
root 2.38515 17.7405 18.6059 -153.518 -4.12293 176.48
lowerback -21.2105 -3.65036 -5.47464
upperback 0.541432 -3.73812 0.961719
thorax 12.9971 -2.19354 2.9912
lowerneck 0.711056 -5.13683 0.0741289
upperneck 23.6597 -4.91573 0.0291311
head 7.10771 -1.53226 -0.184059
rclavicle 2.47238e-014 4.91992e-015
rhumerus -45.3552 -15.9165 -73.1984
rradius 33.092
rwrist -4.36935
rhand -9.34015 -57.7229
rfingers 7.12502
rthumb 16.619 632.969
lclavicle 2.47238e-014 4.91992e-015
lhumerus -29.2378 -3.26546 82.5569
lradius 27.9975
lwrist -2.79611
lhand -22.2667 -14.9237
lfingers 7.12502
lthumb 4.15119 15.0156
rfemur -40.326 5.65861 8.76969
rtibia 25.3955
rfoot -19.5206 -6.60626
rtoes -27.2677
lfemur -22.6663 -17.2326 -9.81358
ltibia 19.6316
lfoot -15.6731 10.6642
ltoes -44.202
501
root 2.42849 17.7434 18.5658 -153.524 -4.00902 176.433
lowerback -21.0599 -3.60399 -5.28848
upperback 0.450592 -3.74383 1.01664
thorax 12.7969 -2.18308 2.95398
lowerneck 0.914406 -5.11879 -0.0797695
upperneck 23.6632 -4.849 -0.00281129
head 7.07738 -1.50821 -0.15989
rclavicle 3.89121e-014 -6.75868e-015
rhumerus -45.4422 -15.4901 -73.2251
rradius 33.015
rwrist -4.62508
rhand -9.85155 -57.307
rfingers 7.12502
rthumb 16.1266 633.344
lclavicle 3.89121e-014 -6.75868e-015
lhumerus -29.3705 -2.88765 82.6854
lradius 28.0319
lwrist -2.91883
lhand -22.5001 -15.3606
lfingers 7.12502
lthumb 3.92582 14.5829
rfemur -40.1963 5.61153 8.98756
rtibia 25.4255
rfoot -19.6486 -6.28354
rtoes -26.8563
lfemur -22.5999 -17.1766 -9.77367
ltibia 19.8329
lfoot -15.5143 10.5449
ltoes -43.5508
502
root 2.47009 17.7475 18.5356 -153.368 -3.88503 176.356
lowerback -21.6258 -3.53535 -5.17869
upperback 0.693912 -3.63912 1.06024
thorax 13.3893 -2.13735 2.94742
lowerneck 0.739105 -5.09428 -0.129793
upperneck 23.5376 -4.84277 -0.0395637
head 7.0668 -1.52793 -0.167407
rclavicle 1.36167e-014 6.06293e-015
rhumerus -44.9259 -15.7489 -73.0647
rradius 32.7813
rwrist -4.20831
rhand -8.70673 -57.2981
rfingers 7.12502
rthumb 17.2287 633.446
lclavicle 1.36167e-014 6.06293e-015
lhumerus -28.8701 -2.87571 82.8946
lradius 28.1298
lwrist -2.63308
lhand -22.6362 -15.411
lfingers 7.12502
lthumb 3.79445 14.535
rfemur -40.3249 5.54065 9.12264
rtibia 25.5262
rfoot -19.7719 -6.05672
rtoes -26.577
lfemur -22.8652 -17.0339 -9.74379
ltibia 20.2974
lfoot -15.2315 10.4872
ltoes -43.3058
